name analog
datacolumns 19
datarows 28
range 0.3245 0.338
endheader
time	ground_force_vx	ground_force_vy	ground_force_vz	ground_force_px	ground_force_py	ground_force_pz	l_ground_force_vx	l_ground_force_vy	l_ground_force_vz	l_ground_force_px	l_ground_force_py	l_ground_force_pz	ground_torque_x	ground_torque_y	ground_torque_z	l_ground_torque_x	l_ground_torque_y	l_ground_torque_z
0.3245	-0.0	-0.0	-0.0	-1.019721269607544	16.85848045349121	-354.26446533203125	4.660487174987793	-19.67678451538086	-400.88812255859375	-0.0	-0.0	-0.0	-0.0	-0.0	-0.0	100988.3046875	-9384.29296875	-7631.7021484375
0.325	-0.0	-0.0	-0.0	-0.8666648864746094	17.15766143798828	-355.60205078125	4.898033142089844	-19.538196563720703	-399.60296630859375	-0.0	-0.0	-0.0	-0.0	-0.0	-0.0	100838.2109375	-9471.1484375	-7642.06103515625
0.3255	-0.0	-0.0	-0.0	-1.143761157989502	17.103397369384766	-355.2367553710937	5.088096618652344	-19.446121215820312	-398.5452575683594	-0.0	-0.0	-0.0	-0.0	-0.0	-0.0	100832.0625	-9429.7275390625	-7433.1376953125
0.326	-0.0	-0.0	-0.0	-1.5427508354187012	17.30389404296875	-355.7059020996094	5.271369934082031	-19.557722091674805	-397.0345153808594	-0.0	-0.0	-0.0	-0.0	-0.0	-0.0	100739.234375	-9438.7744140625	-7417.228515625
0.3265	-0.0	-0.0	-0.0	-1.0446739196777344	17.522863388061523	-356.33349609375	5.582986831665039	-19.32965087890625	-397.5564270019531	-0.0	-0.0	-0.0	-0.0	-0.0	-0.0	100568.140625	-9427.2958984375	-7377.93212890625
0.327	-0.0	-0.0	-0.0	-0.3300821781158447	17.310020446777344	-354.6176147460937	5.663992881774902	-19.197677612304688	-397.9113464355469	-0.0	-0.0	-0.0	-0.0	-0.0	-0.0	100578.3515625	-9630.00390625	-7359.59375
0.3275	-0.0	-0.0	-0.0	-0.4399085342884063	17.441091537475586	-355.6666259765625	6.003407001495361	-19.07507705688477	-397.7371826171875	-0.0	-0.0	-0.0	-0.0	-0.0	-0.0	100135.078125	-9299.15625	-7261.88134765625
0.328	-0.0	-0.0	-0.0	0.1660571992397308	17.472219467163086	-354.239501953125	5.802907466888428	-19.07748413085937	-395.22760009765625	-0.0	-0.0	-0.0	-0.0	-0.0	-0.0	100202.3671875	-9261.404296875	-7195.7822265625
0.3285	-0.0	-0.0	-0.0	-0.1860440373420715	17.14607810974121	-354.8299865722656	6.129743576049805	-19.05327415466309	-395.6486511230469	-0.0	-0.0	-0.0	-0.0	-0.0	-0.0	100042.578125	-8973.9111328125	-7158.96826171875
0.329	-0.0	-0.0	-0.0	0.2631040215492248	17.597152709960938	-354.8424072265625	5.975861072540283	-19.29211807250977	-396.1365356445313	-0.0	-0.0	-0.0	-0.0	-0.0	-0.0	99850.5546875	-8859.279296875	-7190.1279296875
0.3295	-0.0	-0.0	-0.0	-0.0679067596793174	17.787580490112305	-354.55242919921875	6.31762170791626	-18.98889541625977	-396.0650634765625	-0.0	-0.0	-0.0	-0.0	-0.0	-0.0	99934.46875	-8842.3779296875	-7185.43359375
0.33	-0.0	-0.0	-0.0	-0.1421048939228058	17.862363815307617	-354.94586181640625	5.612736225128174	-18.98916244506836	-397.0797119140625	-0.0	-0.0	-0.0	-0.0	-0.0	-0.0	100067.34375	-8806.7451171875	-7294.17919921875
0.3305	-0.0	-0.0	-0.0	-0.0125754540786147	17.898311614990234	-356.53497314453125	5.3891801834106445	-19.727602005004883	-395.2398071289063	-0.0	-0.0	-0.0	-0.0	-0.0	-0.0	99983.84375	-8769.603515625	-7305.96142578125
0.331	-0.0	-0.0	-0.0	-0.4820659756660461	17.83807373046875	-357.842529296875	5.159914016723633	-19.510385513305664	-396.74072265625	-0.0	-0.0	-0.0	-0.0	-0.0	-0.0	100012.703125	-8764.359375	-7416.25048828125
0.3315	-0.0	-0.0	-0.0	-0.7998962998390198	17.68784523010254	-356.6234741210937	5.032826900482178	-19.508827209472656	-396.9153442382813	-0.0	-0.0	-0.0	-0.0	-0.0	-0.0	100118.328125	-8663.708984375	-7367.9013671875
0.332	-0.0	-0.0	-0.0	-0.9218916296958924	17.463546752929688	-357.9833068847656	5.387839794158936	-19.354156494140625	-397.2882690429688	-0.0	-0.0	-0.0	-0.0	-0.0	-0.0	99933.8671875	-8590.5302734375	-7492.150390625
0.3325	-0.0	-0.0	-0.0	-0.6765708327293396	18.12164688110352	-357.9478759765625	5.225160598754883	-19.515670776367188	-395.42864990234375	-0.0	-0.0	-0.0	-0.0	-0.0	-0.0	100139.4296875	-8481.5556640625	-7372.18359375
0.333	-0.0	-0.0	-0.0	-0.6750702261924744	17.816755294799805	-358.9377136230469	5.648460388183594	-19.69588851928711	-397.357421875	-0.0	-0.0	-0.0	-0.0	-0.0	-0.0	100192.34375	-8438.0205078125	-7293.224609375
0.3335	-0.0	-0.0	-0.0	-0.7773234248161316	17.985023498535156	-359.27215576171875	5.750701904296875	-19.52476119995117	-397.4674072265625	-0.0	-0.0	-0.0	-0.0	-0.0	-0.0	100106.0703125	-8594.6328125	-7333.384765625
0.334	-0.0	-0.0	-0.0	-0.5547015070915222	18.202022552490234	-359.1840209960937	5.963306903839111	-20.0146598815918	-397.8195495605469	-0.0	-0.0	-0.0	-0.0	-0.0	-0.0	100217.3359375	-8418.9306640625	-7254.255859375
0.3345	-0.0	-0.0	-0.0	-0.6653222441673279	18.056751251220703	-359.8070678710937	5.698873519897461	-20.00339698791504	-397.0419921875	-0.0	-0.0	-0.0	-0.0	-0.0	-0.0	100150.703125	-8216.0576171875	-7289.7890625
0.335	-0.0	-0.0	-0.0	-1.030224323272705	17.95401382446289	-359.88446044921875	5.229471206665039	-19.725326538085938	-396.8956604003906	-0.0	-0.0	-0.0	-0.0	-0.0	-0.0	100068.640625	-8256.06640625	-7341.22607421875
0.3355	-0.0	-0.0	-0.0	-1.196247935295105	18.377439498901367	-360.9611206054688	5.090550422668457	-19.685043334960938	-396.8181762695313	-0.0	-0.0	-0.0	-0.0	-0.0	-0.0	99956.8046875	-8044.060546875	-7492.361328125
0.336	-0.0	-0.0	-0.0	-0.8827404379844666	18.41580390930176	-359.853271484375	4.767815113067627	-19.92699813842773	-396.5474243164063	-0.0	-0.0	-0.0	-0.0	-0.0	-0.0	99717.0390625	-8215.529296875	-7499.64697265625
0.3365	-0.0	-0.0	-0.0	-1.6450743675231934	18.02735137939453	-361.6643981933594	4.59078311920166	-19.48046112060547	-396.1798706054688	-0.0	-0.0	-0.0	-0.0	-0.0	-0.0	100060.703125	-7845.72021484375	-7612.3779296875
0.337	-0.0	-0.0	-0.0	-1.728806972503662	18.216407775878903	-361.9218444824219	4.385624885559082	-19.701416015625	-395.959716796875	-0.0	-0.0	-0.0	-0.0	-0.0	-0.0	99938.5625	-7655.92431640625	-7638.57470703125
0.3375	-0.0	-0.0	-0.0	-1.862472891807556	18.83148956298828	-360.3227844238281	4.055738925933838	-19.80610466003418	-396.4944763183594	-0.0	-0.0	-0.0	-0.0	-0.0	-0.0	99922.2109375	-7793.72021484375	-7664.75341796875
0.338	-0.0	-0.0	-0.0	-2.419820785522461	18.973648071289062	-362.8040466308594	3.747916460037232	-20.27005386352539	-397.902587890625	-0.0	-0.0	-0.0	-0.0	-0.0	-0.0	99967.4453125	-7930.44287109375	-7848.6982421875
